<?xml version="1.0" encoding="utf-8"?>
<!-- Generator: Adobe Illustrator 26.0.1, SVG Export Plug-In . SVG Version: 6.00 Build 0)  -->
<svg version="1.1" id="Layer_1" xmlns="http://www.w3.org/2000/svg" xmlns:xlink="http://www.w3.org/1999/xlink" x="0px" y="0px"
	 viewBox="0 0 368.5 77.3" style="enable-background:new 0 0 368.5 77.3;" xml:space="preserve">
<g>
	<g>
		<path d="M0,53.6V0.3h11.5l0.1,11.5h0.3c0.1-0.3,0.4-1.1,1-2.3c0.6-1.2,1.5-2.5,2.7-3.9s2.8-2.7,4.8-3.8c2-1.1,4.5-1.6,7.4-1.6
			c4.3,0,7.6,1.1,9.7,3.4c2.2,2.3,3.7,5,4.7,8.1h0.3c0.1-0.3,0.5-1.1,1.1-2.3c0.7-1.2,1.6-2.5,3-3.9c1.3-1.4,3-2.7,5.1-3.8
			c2.1-1.1,4.6-1.6,7.7-1.6c3.4,0,6.1,0.7,8.2,2.1c2.1,1.4,3.7,3.2,4.9,5.4c1.2,2.2,2,4.6,2.5,7.1c0.5,2.5,0.7,4.9,0.8,7.2
			c0,2.3,0.1,4.2,0.1,5.6v25.8H64.6V27.6c0-1.3,0-2.8-0.1-4.6c-0.1-1.8-0.4-3.5-1-5.2c-0.6-1.7-1.6-3.1-3-4.2
			c-1.4-1.1-3.3-1.7-5.7-1.7c-3,0-5.3,0.8-6.9,2.4c-1.6,1.6-2.6,3.6-3.2,6.1c-0.6,2.5-0.9,5-0.9,7.7v25.4H32.6V27.6
			c0-1.3,0-2.8-0.1-4.6c-0.1-1.8-0.4-3.5-1-5.2c-0.6-1.7-1.6-3.1-3-4.2c-1.4-1.1-3.3-1.7-5.7-1.7c-3,0-5.3,0.8-6.9,2.4
			c-1.6,1.6-2.6,3.6-3.2,6.1c-0.6,2.5-0.9,5-0.9,7.7v25.4H0z"/>
		<path d="M97.1,22.6h25.2c-0.1-0.6-0.3-1.6-0.6-2.9c-0.3-1.3-0.9-2.6-1.7-4c-0.8-1.4-2.1-2.6-3.7-3.5c-1.6-1-3.8-1.4-6.4-1.4
			c-3.5,0-6.1,0.7-7.9,2.1c-1.8,1.4-3,3.1-3.8,4.9C97.6,19.7,97.2,21.3,97.1,22.6 M110.6,54.9c-6.1,0-11.1-1.3-15-4
			c-3.8-2.6-6.7-6-8.6-10.1c-1.9-4.1-2.8-8.5-2.9-13c-0.1-5.4,0.9-10.1,3-14.3c2.1-4.2,5.1-7.5,9.1-9.9c3.9-2.4,8.6-3.6,13.9-3.6
			c4.8,0,9,1,12.8,3.1c3.8,2.1,6.8,5,9,8.8c2.2,3.8,3.4,8.2,3.5,13.3v3H96.7c0,5.2,1.2,9.1,3.6,11.7c2.4,2.6,5.8,4,10,4
			c3.3,0,6-0.8,8.2-2.5c2.2-1.6,3.5-3.8,4-6.5h12.8c-0.6,5.6-3,10.4-7.3,14.2C123.9,53,118,54.9,110.6,54.9"/>
		<path d="M168.6,53.6V0.3h11.3l2.2,11.3l0.3,0.3c0.1-0.3,0.4-1,1-2.1c0.6-1.2,1.5-2.5,2.9-4c1.3-1.5,3.2-2.7,5.5-3.8
			c2.3-1.1,5.2-1.6,8.6-1.6c4.8,0,8.4,1,11,2.9c2.6,1.9,4.5,4.3,5.6,7.2c1.1,2.9,1.8,5.9,2.1,9c0.3,3.1,0.4,5.9,0.4,8.4v25.8h-13
			V27.6c0-2.9-0.3-5.5-0.8-7.8c-0.5-2.4-1.6-4.3-3.3-5.8c-1.7-1.5-4.2-2.3-7.5-2.3c-3.5,0-6.1,0.8-7.9,2.5c-1.8,1.6-3.1,3.7-3.8,6.2
			c-0.7,2.5-1,5.1-1,7.8v25.4H168.6z"/>
	</g>
	<rect x="230.7" y="0.3" width="13.2" height="53.3"/>
	<g>
		<path d="M255.5,53.6V0.3h11.3l2.2,11.3l0.3,0.3c0.1-0.3,0.4-1,1-2.1c0.6-1.2,1.5-2.5,2.9-4c1.3-1.5,3.2-2.7,5.5-3.8
			c2.3-1.1,5.2-1.6,8.6-1.6c4.8,0,8.4,1,11,2.9c2.6,1.9,4.5,4.3,5.6,7.2c1.1,2.9,1.8,5.9,2.1,9c0.3,3.1,0.4,5.9,0.4,8.4v25.8h-13
			V27.6c0-2.9-0.3-5.5-0.8-7.8c-0.5-2.4-1.6-4.3-3.3-5.8c-1.7-1.5-4.2-2.3-7.5-2.3c-3.5,0-6.1,0.8-7.9,2.5c-1.8,1.6-3.1,3.7-3.8,6.2
			c-0.7,2.5-1,5.1-1,7.8v25.4H255.5z"/>
		<path d="M341,43.7c4.8,0,8.3-1.5,10.5-4.5c2.2-3,3.2-6.8,3.2-11.5c0-4.5-1-8.2-3.1-11.2c-2.1-3-5.5-4.5-10.4-4.5
			c-3.5,0-6.3,0.8-8.3,2.3c-2,1.5-3.4,3.5-4.2,5.8c-0.8,2.4-1.2,4.9-1.2,7.6c0,2.7,0.4,5.3,1.1,7.7c0.7,2.5,2.1,4.5,4,6
			C334.6,43,337.4,43.7,341,43.7 M331.5,77.3V64.9h23.4V44.1l-0.3,0c-0.1,0.2-0.5,0.8-1.1,1.9c-0.6,1.1-1.7,2.4-3.1,3.8
			c-1.4,1.4-3.2,2.6-5.4,3.6c-2.2,1-5,1.5-8.2,1.5c-7.9,0-13.5-2.5-17-7.5c-3.5-5-5.2-11.5-5.2-19.6c0-8.4,1.8-15.1,5.3-20
			c3.5-5,9.1-7.5,16.9-7.5c3.5,0,6.3,0.5,8.6,1.6c2.2,1.1,4,2.4,5.3,3.8c1.3,1.5,2.2,2.8,2.8,4c0.6,1.2,0.9,1.9,1,2.2h0.3l0.1-11.7
			h13.6v57.9c0,7.1-1.4,12.1-4.2,14.9c-2.8,2.9-7.2,4.3-13,4.3H331.5z"/>
		<path d="M144.6,28.1v-8.7h3.1c2.3,0,3.8-0.3,4.7-1c0.9-0.7,1.3-1.8,1.3-3.5c-3.3,0-5.6-0.7-6.9-2c-1.3-1.3-2-3.1-2-5.4
			c0-2.1,0.6-3.9,1.7-5.3c1.1-1.5,3.1-2.2,5.9-2.2c2.3,0,4,0.7,5.3,2.1c1.3,1.4,1.9,4.1,1.9,8.2c0,5-0.9,9.2-2.6,12.6
			c-1.7,3.5-4.8,5.2-9.1,5.2H144.6z"/>
	</g>
</g>
</svg>
